<svg viewBox="0 0 48 56" fill="none" xmlns="http://www.w3.org/2000/svg" role="img" aria-label="Infinite Vision icon">
  <path d="M24 3.5C31.5 3.5 37.2 9.8 39.5 18.2C41.8 26.6 39.8 36.2 34.5 43.5C31.2 48.2 27 50.5 24 50.5C21 50.5 16.8 48.2 13.5 43.5C8.2 36.2 6.2 26.6 8.5 18.2C10.8 9.8 16.5 3.5 24 3.5Z" fill="#0A1A2F"/>
  <path d="M11 44.5C11 40.5 15.5 38.5 19.5 41C21.5 42.3 22.5 43.5 24 43.5C25.5 43.5 26.5 42.3 28.5 41C32.5 38.5 37 40.5 37 44.5C37 48 33 50.5 24 50.5C15 50.5 11 48 11 44.5Z" fill="#0A1A2F"/>
  <path d="M24 22L17.5 28.5H20V36.5H28V28.5H30.5L24 22Z" fill="#C8A45D"/>
</svg>
